<svg xmlns="http://www.w3.org/2000/svg" viewBox="0 0 1424 750" width="160" height="84">
    <g transform="translate(0,750) scale(0.1,-0.1)" fill="currentColor" stroke="none">
          <path d="M7144 5933 c-128 -110 -488 -322 -702 -413 l-73 -31 -106 26 c-137 33 -272 74 -298 89 -11 7 -33 16 -50 19 -16 4 -70 16 -119 27 -194 44 -300 45 -340 4 -14 -14 -14 -19 0 -52 8 -20 32 -66 54 -102 44 -74 105 -225 96 -239 -4 -5 -26 -13 -51 -17 -28 -4 -46 -12 -49 -23 -10 -30 -26 -345 -26 -496 0 -192 16 -471 38 -650 l17 -140 83 -3 c76 -3 83 -1 78 15 -9 31 -35 273 -46 423 -11 163 -13 557 -4 672 l7 76 41 6 c80 13 368 87 484 125 332 110 689 285 925 455 42 31 80 56 83 56 4 0 36 -22 73 -49 160 -118 471 -283 706 -374 236 -92 489 -168 460 -140 -5 6 -59 43 -120 83 -150 99 -149 99 -128 122 9 10 14 19 12 21 -2 1 -71 29 -154 62 -276 109 -549 257 -754 409 l-97 73 -40 -34z"/>
          <path d="M5816 5932 c-117 -3 -118 -3 -112 -25 3 -12 6 -32 6 -44 0 -23 2 -23 120 -23 l120 0 0 44 c0 25 -3 46 -7 48 -5 2 -61 2 -127 0z"/>
          <path d="M5992 5828 l3 -52 80 -23 c44 -12 84 -23 88 -23 4 0 7 23 5 52 l-3 51 -75 24 c-104 31 -102 32 -98 -29z"/>
          <path d="M5590 5766 l0 -35 58 -6 c59 -7 254 -48 285 -60 15 -6 17 0 17 64 l0 71 -180 0 -180 0 0 -34z"/>
          <path d="M6212 5738 l3 -42 80 -18 c44 -9 84 -18 88 -18 5 0 7 19 5 42 l-3 42 -80 17 c-44 10 -84 18 -88 18 -5 1 -7 -18 -5 -41z"/>
          <path d="M5992 5688 l3 -52 55 -17 c30 -9 70 -20 88 -24 l33 -7 -3 53 -3 54 -60 16 c-33 9 -73 19 -88 23 l-28 7 3 -53z"/>
          <path d="M6210 5616 l0 -44 73 -17 c39 -9 80 -18 90 -21 16 -5 18 0 15 43 l-3 48 -70 17 c-106 25 -105 25 -105 -26z"/>
          <path d="M7059 5442 c-172 -198 -315 -409 -407 -601 -44 -91 -52 -115 -41 -122 43 -27 381 -88 487 -89 l42 0 0 450 c0 248 -1 450 -2 450 -2 -1 -37 -40 -79 -88z"/>
          <path d="M7235 5080 l0 -452 75 6 c96 9 240 32 306 50 l51 13 11 -41 c6 -22 8 -44 4 -47 -20 -19 -277 -64 -402 -71 l-45 -3 0 -230 c0 -126 -1 -272 -2 -323 l-3 -94 -45 53 -45 52 -2 271 -3 271 -50 2 c-136 7 -310 36 -465 78 -30 8 -57 11 -61 7 -11 -12 -68 -210 -90 -312 -21 -98 -34 -121 -89 -153 l-31 -19 6 54 c8 66 57 275 91 387 14 45 24 84 22 86 -2 2 -28 13 -58 25 -105 41 -420 222 -420 241 0 7 80 29 106 29 9 0 47 -19 83 -42 71 -44 298 -158 318 -158 6 0 38 55 71 123 74 149 196 335 288 440 38 44 80 93 94 110 l25 31 -60 -33 c-33 -19 -82 -46 -110 -62 -234 -130 -649 -281 -942 -344 l-81 -17 -7 -147 c-12 -233 16 -730 51 -904 l6 -29 186 4 c220 4 218 3 394 136 119 89 192 122 272 122 124 0 212 -50 330 -189 215 -252 288 -306 415 -305 89 1 149 26 271 114 163 117 151 114 522 118 318 3 318 3 323 25 39 175 67 734 46 934 l-6 61 -67 -39 -66 -39 -7 -66 -7 -65 -53 -35 c-29 -20 -56 -45 -59 -57 -3 -12 -6 -61 -6 -109 0 -83 1 -88 30 -116 40 -41 39 -75 -4 -118 -38 -38 -54 -41 -95 -19 -30 15 -57 65 -48 89 4 10 -35 43 -124 107 -71 51 -129 97 -129 103 0 6 6 19 14 28 11 15 25 8 140 -78 70 -52 135 -94 144 -92 14 3 17 19 20 98 3 89 -9 165 -39 267 l-10 31 -71 -40 c-71 -40 -159 -81 -163 -76 -5 6 -35 67 -35 72 0 3 42 25 93 49 143 69 140 63 60 127 -37 30 -70 56 -73 58 -6 4 68 72 94 87 15 9 0 17 -85 49 -147 54 -411 175 -524 240 -52 30 -95 52 -95 49 0 -3 20 -28 45 -55 79 -88 233 -313 295 -431 l61 -115 -28 -10 c-16 -5 -36 -13 -45 -17 -14 -5 -25 9 -57 72 -90 177 -254 411 -403 577 l-53 58 0 -452z m250 -75 c14 -13 25 -35 25 -48 0 -22 48 -59 198 -153 3 -2 -15 -43 -23 -52 -2 -2 -46 26 -99 62 -93 62 -99 65 -145 59 -43 -5 -50 -3 -69 22 -66 83 39 185 113 110z m380 -241 c18 -7 45 -55 45 -79 0 -26 -55 -75 -85 -75 -38 0 -75 41 -75 84 0 55 59 91 115 70z m-107 -225 c-2 -4 -38 -49 -82 -99 -72 -84 -77 -94 -67 -116 15 -34 14 -70 -5 -109 -20 -44 -59 -68 -109 -71 l-40 -1 -82 -149 c-45 -82 -88 -149 -94 -149 -7 0 -17 8 -23 18 -9 15 3 44 66 167 l77 148 -21 39 c-52 95 41 212 144 182 38 -10 35 -13 122 94 68 83 70 85 93 70 13 -9 22 -19 21 -24z m183 -6 c30 -77 89 -402 89 -489 0 -22 -4 -24 -49 -24 l-48 0 -7 86 c-9 103 -27 211 -55 321 -12 45 -21 85 -21 90 0 9 56 41 73 42 4 1 12 -11 18 -26z"/>
          <path d="M9038 5495 c-51 -13 -112 -47 -218 -122 -45 -32 -81 -51 -90 -47 -8 3 -101 28 -207 55 l-192 50 -41 -21 c-23 -12 -39 -24 -35 -28 4 -4 68 -45 143 -92 74 -47 137 -90 139 -96 2 -6 -42 -43 -97 -83 -111 -78 -123 -81 -205 -52 -46 16 -53 17 -82 3 -18 -9 -33 -19 -33 -23 0 -4 34 -36 75 -71 79 -65 84 -75 104 -182 5 -26 11 -49 14 -52 2 -3 18 7 35 21 25 21 31 35 37 83 4 32 10 63 13 69 15 21 266 153 272 143 4 -6 17 -84 29 -173 31 -224 27 -214 79 -169 31 27 32 27 57 227 14 110 28 213 31 228 4 21 32 46 119 107 130 92 175 138 175 179 0 49 -45 66 -122 46z"/>
          <path d="M8872 4739 c-4 -29 -60 -97 -106 -129 l-46 -31 0 -107 c0 -146 -24 -422 -46 -519 -4 -22 -2 -23 76 -23 91 0 81 -11 99 115 20 137 32 373 29 540 -2 94 -5 163 -6 154z"/>
          <path d="M6645 4104 c-65 -16 -97 -34 -193 -106 -128 -96 -173 -123 -231 -138 -30 -8 -170 -11 -442 -10 l-399 1 -10 -26 c-6 -15 -7 -37 -4 -50 6 -23 10 -24 101 -27 l95 -3 38 -152 c54 -213 91 -316 174 -488 218 -447 535 -767 1089 -1099 149 -89 299 -166 324 -166 22 0 292 146 428 232 378 239 636 475 820 748 174 259 287 535 362 885 l9 40 94 5 95 5 3 36 c2 22 -2 40 -12 48 -11 9 -136 11 -538 9 l-523 -3 -59 -28 c-32 -15 -89 -49 -125 -76 -142 -104 -232 -138 -340 -127 -132 12 -233 84 -402 287 -95 114 -146 160 -201 184 -39 16 -123 26 -153 19z m-202 -422 c9 -124 39 -290 76 -412 l28 -94 -40 -18 c-22 -10 -42 -17 -44 -14 -2 2 -19 57 -38 122 -35 121 -75 351 -75 435 0 41 3 47 33 62 17 8 37 16 43 16 7 1 13 -36 17 -97z m-561 -44 c62 -242 178 -498 306 -677 132 -185 344 -386 587 -556 99 -69 341 -215 357 -215 4 0 8 203 8 450 l0 450 -33 0 c-81 0 -314 -40 -378 -65 -12 -4 -19 4 -28 36 -7 22 -10 44 -7 47 13 12 217 52 328 64 l118 12 0 183 c0 101 3 183 6 183 4 0 24 -10 45 -22 l39 -21 2 -161 3 -161 111 -11 c131 -14 238 -35 353 -70 45 -14 84 -24 86 -22 2 2 16 41 33 88 40 114 81 287 101 423 l16 112 47 3 47 3 -5 -53 c-16 -152 -92 -458 -148 -598 -4 -11 16 -26 79 -58 47 -24 85 -48 85 -52 0 -5 -11 -21 -24 -36 l-23 -28 -77 38 c-42 21 -78 37 -80 35 -2 -2 -27 -52 -58 -110 -30 -58 -86 -152 -124 -209 -65 -97 -75 -107 -164 -165 -146 -95 -152 -97 -99 -34 105 124 154 190 219 295 96 155 144 253 128 259 -128 47 -278 79 -420 91 l-88 7 0 -452 c0 -248 3 -451 8 -451 11 0 224 124 297 173 285 191 496 385 647 597 119 168 234 419 298 650 17 63 33 121 35 128 3 8 25 12 65 12 71 0 70 6 35 -130 -146 -575 -437 -976 -972 -1338 -152 -103 -431 -262 -459 -262 -26 0 -295 154 -451 258 -310 207 -520 410 -687 662 -70 106 -152 263 -197 379 -33 86 -106 333 -115 393 l-7 39 64 -3 63 -3 28 -107z m733 -563 c14 -13 25 -36 25 -50 0 -34 -42 -75 -76 -75 -68 0 -100 88 -48 129 35 28 69 26 99 -4z m-169 -154 c-2 -3 -34 -21 -71 -40 l-66 -34 -22 21 -21 22 25 26 c13 14 46 39 74 55 l50 28 17 -36 c10 -19 16 -38 14 -42z m275 -122 c66 -114 203 -306 267 -371 20 -21 33 -38 30 -38 -6 0 -81 48 -186 118 -36 25 -70 61 -110 121 -61 89 -147 240 -141 246 2 2 20 10 39 18 19 9 36 16 36 16 1 1 30 -49 65 -110z"/>
          <path d="M5419 1584 c-61 -18 -136 -86 -165 -149 -66 -141 10 -321 155 -370 73 -24 182 -22 254 5 85 32 87 35 87 156 l0 104 -60 0 -60 0 0 -79 0 -79 -49 -12 c-85 -20 -167 13 -202 81 -42 83 -17 174 61 227 30 20 44 23 102 20 50 -3 75 -9 98 -26 34 -25 48 -22 90 23 l25 27 -35 29 c-66 56 -199 75 -301 43z"/>
          <path d="M6543 1586 c-126 -41 -196 -137 -195 -266 1 -79 20 -127 73 -185 55 -60 124 -88 219 -88 98 0 165 28 223 93 49 54 70 111 69 186 -1 110 -47 186 -143 239 -43 23 -68 29 -129 32 -45 2 -92 -3 -117 -11z m183 -115 c62 -38 96 -129 74 -196 -41 -124 -186 -161 -276 -71 -77 77 -62 211 28 266 44 27 131 27 174 1z"/>
          <path d="M8987 1588 c-21 -6 -56 -27 -77 -47 -70 -66 -61 -179 17 -224 17 -10 74 -29 125 -43 97 -25 130 -48 121 -83 -13 -49 -141 -54 -232 -9 l-53 26 -19 -46 -20 -47 22 -17 c53 -44 216 -64 307 -39 144 40 173 214 47 279 -12 6 -59 20 -105 31 -105 27 -132 43 -128 79 6 53 104 69 199 33 l51 -20 20 45 c11 25 18 47 16 49 -1 1 -19 11 -38 21 -42 21 -194 29 -253 12z"/>
          <path d="M5860 1325 l0 -265 210 0 210 0 0 50 0 50 -150 0 -150 0 0 60 0 60 131 0 130 0 -3 48 -3 47 -127 3 -128 3 0 54 0 55 145 0 145 0 0 50 0 50 -205 0 -205 0 0 -265z"/>
          <path d="M7250 1325 l0 -265 65 0 65 0 0 75 0 75 89 0 c173 0 254 61 254 190 0 84 -38 142 -115 175 -29 11 -76 15 -198 15 l-160 0 0 -265z m313 145 c50 -39 43 -116 -12 -145 -19 -9 -56 -15 -101 -15 l-70 0 0 90 0 90 79 0 c63 0 83 -4 104 -20z"/>
          <path d="M7812 1398 c3 -175 5 -197 25 -233 44 -83 108 -117 219 -119 60 0 80 4 130 29 49 25 63 39 86 84 28 53 28 55 28 242 l0 189 -60 0 -60 0 0 -158 c0 -86 -4 -172 -10 -191 -21 -74 -92 -107 -163 -77 -60 25 -67 51 -67 251 l0 175 -66 0 -66 0 4 -192z"/>
          <path d="M8420 1325 l0 -265 195 0 195 0 0 50 0 50 -135 0 -135 0 0 215 0 215 -60 0 -60 0 0 -265z"/>
          <path d="M9390 1325 l0 -265 210 0 210 0 0 50 0 50 -150 0 -151 0 3 58 3 57 128 3 127 3 0 49 0 50 -130 0 -130 0 0 55 0 55 145 0 145 0 0 50 0 50 -205 0 -205 0 0 -265z"/>
    </g>
</svg>
